<svg width="19" height="19" viewBox="0 0 19 19" fill="none" xmlns="http://www.w3.org/2000/svg">
<path fill-rule="evenodd" clip-rule="evenodd" d="M13.0081 14.4196C9.86958 16.8633 5.32891 16.6426 2.44373 13.7574C-0.680463 10.6332 -0.680463 5.56793 2.44373 2.44373C5.56793 -0.680463 10.6332 -0.680462 13.7574 2.44373C16.6426 5.32891 16.8633 9.86958 14.4196 13.0081C14.4349 13.0216 14.4499 13.0357 14.4645 13.0503L18.7072 17.293C19.0977 17.6835 19.0977 18.3167 18.7072 18.7072C18.3167 19.0977 17.6835 19.0977 17.293 18.7072L13.0503 14.4645C13.0357 14.4499 13.0216 14.4349 13.0081 14.4196ZM3.85794 12.3432C6.20109 14.6864 10.0001 14.6864 12.3432 12.3432C14.6864 10.0001 14.6864 6.20109 12.3432 3.85795C10.0001 1.5148 6.20109 1.5148 3.85795 3.85795C1.5148 6.20109 1.5148 10.0001 3.85794 12.3432Z" fill="#707372"/>
</svg>
