<svg width="52" height="52" viewBox="0 0 52 52" fill="none" xmlns="http://www.w3.org/2000/svg">
<path fill-rule="evenodd" clip-rule="evenodd" d="M39.7615 24.9153L38.8271 23.887C35.6925 30.2964 28.7023 33.8661 21.6721 32.6477L19.0066 35.9798C18.7212 36.3361 18.2062 36.4052 17.837 36.1366L16.1095 34.8802L6.18865 47.09C5.89235 47.4539 5.35835 47.5112 4.99155 47.2185L0.720254 43.8015L0.717154 43.799C0.349854 43.5014 0.293355 42.9624 0.590955 42.5952L10.2955 30.6518L8.44025 29.3026C8.25095 29.1657 8.12635 28.9569 8.09575 28.7253C8.06515 28.4941 8.12985 28.2603 8.27515 28.0779L10.5605 25.2215C10.2765 24.768 10.0151 24.3007 9.77725 23.8214C5.79775 15.8005 9.07375 6.07219 17.0948 2.09279C25.1158 -1.88661 34.8441 1.38959 38.8235 9.41058L39.7664 8.38599C39.9699 8.16409 40.2753 8.06619 40.5698 8.12819C41.1912 8.26059 41.7955 8.46358 42.3709 8.73298C42.6469 8.86138 42.8339 9.12659 42.8623 9.42958L42.9674 10.575C43.0617 10.6409 43.1543 10.7094 43.2452 10.7794L44.3214 10.5333C44.625 10.4628 44.9428 10.5639 45.1498 10.7969C45.5779 11.2747 45.9522 11.7981 46.266 12.3577C46.4128 12.6209 46.4103 12.942 46.2593 13.2028L45.6879 14.188C45.7279 14.3056 45.7647 14.4258 45.7997 14.5484L46.8242 15.0006C47.1341 15.1369 47.334 15.4436 47.3339 15.7822V17.5224C47.334 17.8609 47.1341 18.1676 46.8242 18.304L45.7998 18.7562C45.7647 18.8788 45.728 18.999 45.688 19.1166L46.2593 20.1018C46.4104 20.363 46.4127 20.6845 46.2652 20.9477C45.9514 21.5069 45.5774 22.03 45.1498 22.5077C44.9431 22.7411 44.625 22.8423 44.3214 22.7713L43.2444 22.5252C43.1543 22.5944 43.0617 22.6629 42.9674 22.7296L42.8623 23.875C42.8339 24.178 42.6468 24.4432 42.3709 24.5716C41.7952 24.841 41.1907 25.044 40.569 25.1764C40.5114 25.1887 40.4527 25.1949 40.3937 25.1948C40.153 25.1949 39.9235 25.0934 39.7615 24.9153ZM41.2073 10.0944C41.0321 10.0268 40.8553 9.96679 40.68 9.91588L39.562 11.13C40.8775 14.6886 40.8794 18.6001 39.5673 22.16L40.6827 23.3878C40.8581 23.3369 41.033 23.2777 41.2074 23.2101L41.3032 22.1648C41.3281 21.8982 41.4763 21.6586 41.7037 21.5174C41.9714 21.352 42.2248 21.1645 42.4612 20.9568C42.6671 20.7741 42.949 20.7029 43.217 20.7658L44.193 20.9894C44.3116 20.8367 44.4231 20.6807 44.5275 20.5214L44.0069 19.6238C43.8735 19.3937 43.8549 19.1145 43.9568 18.8688C44.077 18.5719 44.1726 18.2655 44.2421 17.9528C44.3014 17.6891 44.4826 17.4693 44.7301 17.3605L45.6252 16.9659V16.3386L44.7301 15.944C44.4826 15.8352 44.3014 15.6154 44.2421 15.3517C44.1726 15.039 44.0772 14.7326 43.9568 14.4357C43.8549 14.19 43.8735 13.9108 44.0069 13.6807L44.5275 12.7831C44.423 12.6238 44.3115 12.4678 44.193 12.3151L43.2169 12.5387C42.9489 12.6012 42.6672 12.53 42.4611 12.3477C42.2252 12.14 41.9721 11.9527 41.7045 11.7879C41.4766 11.6466 41.3281 11.4067 41.3032 11.1397L41.2073 10.0944ZM38.8414 16.6523C38.8414 8.63179 32.3395 2.12999 24.3191 2.12999C16.3024 2.13899 9.80575 8.63559 9.79685 16.6523C9.79685 24.6727 16.2987 31.1746 24.3191 31.1746C32.3395 31.1746 38.8414 24.6728 38.8414 16.6523ZM5.39705 45.3548L14.7255 33.8742L11.6797 31.6584L2.45975 43.0048L5.39705 45.3548ZM16.459 33.0224L18.1817 34.2754L19.8147 32.2337C16.5585 31.2864 13.68 29.3446 11.5821 26.6802L10.1681 28.4466L16.3618 32.9517L16.459 33.0224ZM24.3195 29.4661C31.3964 29.4661 37.1333 23.7292 37.1333 16.6523C37.1333 9.57539 31.3964 3.83848 24.3195 3.83848C17.2426 3.83848 11.5058 9.57539 11.5058 16.6523C11.5135 23.726 17.2459 29.4584 24.3195 29.4661ZM33.7075 22.5579C30.4459 22.0886 28.1824 19.0642 28.6516 15.8026C29.0286 13.1823 31.0872 11.1237 33.7075 10.7467C35.9973 14.3509 35.9973 18.9537 33.7075 22.5579ZM32.5652 9.23999C28.4715 10.3405 26.045 14.5512 27.1455 18.6449C27.8562 21.2887 29.9213 23.3539 32.5652 24.0646C31.6836 25.048 30.6345 25.867 29.4666 26.4837C29.0966 26.2949 28.7368 26.0866 28.3889 25.8597L28.7585 24.7352C28.867 24.4045 28.7644 24.0411 28.4991 23.8159C28.1049 23.4825 27.7391 23.117 27.4054 22.7231C27.1799 22.4587 26.8172 22.3566 26.4869 22.4645L25.359 22.8357C25.079 22.4242 24.8267 21.9945 24.604 21.5493L25.5 20.7459C25.7594 20.5137 25.8521 20.1475 25.7344 19.8199C25.5593 19.3362 25.4251 18.8386 25.3331 18.3325C25.2713 17.9904 25.0084 17.7199 24.6682 17.6484L23.5629 17.4156V15.889L24.6683 15.6563C25.0085 15.5848 25.2714 15.3143 25.3332 14.9722C25.4255 14.4656 25.5597 13.9675 25.7345 13.4831C25.8521 13.1558 25.7594 12.7898 25.5001 12.5579L24.6041 11.7554C24.8269 11.3103 25.0792 10.8806 25.3591 10.469L26.4878 10.8402C26.8185 10.9479 27.1815 10.8454 27.4071 10.5808C27.7405 10.1866 28.106 9.82078 28.4999 9.48709C28.7646 9.26178 28.8668 8.89888 28.7585 8.56858L28.3889 7.44409C28.737 7.21769 29.0966 7.00969 29.4665 6.82089C30.6344 7.43749 31.6836 8.25659 32.5652 9.23999ZM24.3195 5.54698C25.3917 5.54798 26.458 5.70488 27.485 6.01278C27.4308 6.04844 27.3762 6.0838 27.3215 6.11916L27.3214 6.11919L27.3214 6.1192C27.1653 6.22017 27.0092 6.3211 26.8664 6.42878C26.5742 6.64888 26.4545 7.03058 26.5686 7.37808L26.9607 8.57189C26.7997 8.72369 26.6421 8.88139 26.4902 9.04239L25.2972 8.65028C24.95 8.53808 24.5699 8.65709 24.3487 8.94729C23.7175 9.77619 23.19 10.6791 22.7778 11.636C22.6343 11.9725 22.7212 12.3631 22.9939 12.607L23.9441 13.4579C23.879 13.6706 23.8215 13.885 23.7706 14.0994L22.5326 14.3597C22.1374 14.443 21.8544 14.7917 21.8544 15.1956V18.1087C21.8545 18.5126 22.1374 18.8613 22.5326 18.9446L23.7706 19.2049C23.8215 19.4193 23.8791 19.6337 23.9433 19.8464L22.9939 20.6973C22.7213 20.9413 22.6344 21.3318 22.7778 21.6683C23.1899 22.6246 23.7168 23.5272 24.347 24.3562C24.567 24.6485 24.9488 24.7683 25.2963 24.654L26.4901 24.2619C26.6419 24.4229 26.7996 24.5805 26.9606 24.7324L26.5685 25.9254C26.4546 26.2726 26.574 26.6537 26.8655 26.8739C27.0093 26.9826 27.1667 27.0845 27.3242 27.1865L27.3242 27.1865L27.3245 27.1867C27.3783 27.2215 27.432 27.2563 27.4853 27.2914C21.6081 29.0411 15.4254 25.6951 13.6757 19.8179C11.926 13.9407 15.2721 7.75799 21.1492 6.00828C22.1782 5.70228 23.2461 5.54678 24.3195 5.54698ZM49.9111 40.0107L51.0907 40.5313C51.4007 40.6677 51.6007 40.9744 51.6005 41.313V43.2468C51.6007 43.5853 51.4007 43.892 51.0908 44.0284L49.9112 44.549C49.8654 44.7142 49.8153 44.8727 49.7619 45.027L50.4193 46.1599C50.5703 46.421 50.5728 46.7423 50.426 47.0058C50.0802 47.6216 49.6678 48.1977 49.1963 48.7235C48.9898 48.9561 48.6725 49.057 48.3696 48.9863L47.1283 48.7027C47.0065 48.7981 46.8814 48.8904 46.7529 48.9797L46.6328 50.2961C46.6052 50.5998 46.4176 50.8658 46.1406 50.9935C45.5074 51.2893 44.8428 51.5124 44.1593 51.6584C44.1017 51.6706 44.043 51.6768 43.9841 51.6767C43.7353 51.6768 43.4989 51.5684 43.3367 51.3797L42.4674 50.3703H42.0503L41.181 51.3797C40.9785 51.6161 40.663 51.723 40.3585 51.6583C39.6751 51.5122 39.0104 51.2892 38.3772 50.9934C38.1002 50.8657 37.9126 50.5998 37.885 50.296L37.7649 48.9796C37.6364 48.8903 37.5105 48.7977 37.3887 48.7018L36.149 48.9863C35.8458 49.0569 35.5283 48.9561 35.3214 48.7235C34.8499 48.1976 34.4375 47.6216 34.0917 47.0058C33.9449 46.7423 33.9474 46.421 34.0984 46.1599L34.7558 45.027C34.7024 44.8727 34.6524 44.7142 34.6065 44.549L33.4269 44.0284C33.117 43.8921 32.917 43.5854 32.9172 43.2468V41.313C32.917 40.9745 33.117 40.6678 33.4269 40.5314L34.6065 40.0108C34.6526 39.8459 34.7024 39.6862 34.7558 39.5319L34.0993 38.3999C33.9483 38.139 33.9458 37.818 34.0926 37.5548C34.4376 36.9385 34.8497 36.3621 35.3214 35.8363C35.5282 35.6041 35.8452 35.5034 36.1481 35.5735L37.3894 35.8571C37.5112 35.7617 37.6363 35.6694 37.7648 35.5801L37.8849 34.2637C37.9125 33.96 38.1001 33.694 38.3771 33.5663C39.0103 33.2705 39.675 33.0474 40.3584 32.9014C40.6629 32.8355 40.9791 32.9426 41.1809 33.18L42.0502 34.1894H42.4673L43.3366 33.1799C43.539 32.9433 43.8547 32.8364 44.1592 32.9013C44.8426 33.0474 45.5073 33.2704 46.1405 33.5662C46.4175 33.6939 46.6051 33.9598 46.6327 34.2636L46.7528 35.58C46.8813 35.6696 47.0064 35.7619 47.1282 35.857L48.3695 35.5734C48.6724 35.5029 48.9896 35.6037 49.1962 35.8362C49.6677 36.3621 50.0801 36.9381 50.4259 37.5539C50.5727 37.8174 50.5702 38.1387 50.4192 38.3998L49.7618 39.5327C49.8152 39.687 49.8652 39.8455 49.9111 40.0107ZM48.84 43.1542L49.892 42.6903L49.8921 41.8694L48.8401 41.4055C48.5927 41.2967 48.4115 41.0769 48.3521 40.8132C48.274 40.4613 48.1663 40.1167 48.03 39.783C47.9281 39.5368 47.9466 39.2571 48.08 39.0264L48.6882 37.9786C48.5505 37.7645 48.402 37.5565 48.2427 37.3546L47.0981 37.6165C46.8302 37.6782 46.549 37.6068 46.3431 37.4246C46.0771 37.1912 45.7919 36.9805 45.4906 36.7948C45.2621 36.6536 45.1132 36.4133 45.0885 36.1458L44.9776 34.9261C44.7482 34.836 44.5179 34.7576 44.2885 34.6925L43.506 35.601C43.3436 35.7895 43.1073 35.8979 42.8586 35.898H41.659C41.4102 35.8979 41.1739 35.7894 41.0116 35.601L40.2291 34.6925C39.9997 34.7576 39.7694 34.836 39.54 34.9261L39.4291 36.1458C39.4044 36.4133 39.2555 36.6536 39.027 36.7948C38.7257 36.9805 38.4406 37.1912 38.1745 37.4246C37.9685 37.6067 37.6874 37.6782 37.4195 37.6165L36.2749 37.3546C36.1156 37.5565 35.9671 37.7651 35.8303 37.9778L36.4376 39.0256C36.571 39.256 36.5895 39.5354 36.4876 39.7814C36.3514 40.1157 36.2436 40.4609 36.1655 40.8133C36.1061 41.077 35.925 41.2968 35.6775 41.4056L34.6255 41.8695V42.6904L35.6775 43.1543C35.9249 43.2631 36.1061 43.4829 36.1655 43.7466C36.2436 44.0985 36.3513 44.4431 36.4876 44.7768C36.5895 45.023 36.571 45.3027 36.4376 45.5334L35.8294 46.5812C35.9671 46.7948 36.1156 47.0034 36.2749 47.2044L37.4186 46.9424C37.6872 46.881 37.9688 46.9527 38.1753 47.1351C38.4409 47.3688 38.7258 47.5795 39.027 47.765C39.2555 47.9062 39.4044 48.1465 39.4291 48.414L39.54 49.6337C39.7694 49.7238 39.9997 49.8022 40.2291 49.8673L41.0116 48.9588C41.174 48.7704 41.4103 48.6619 41.659 48.6618H42.8586C43.1074 48.6619 43.3437 48.7704 43.506 48.9588L44.2885 49.8673C44.5179 49.8022 44.7482 49.7238 44.9776 49.6337L45.0885 48.414C45.1132 48.1465 45.2621 47.9062 45.4906 47.765C45.7919 47.5792 46.077 47.3685 46.3431 47.1351C46.5486 46.9522 46.8302 46.8806 47.0981 46.9432L48.2427 47.2051C48.4021 47.0027 48.5505 46.7947 48.6882 46.5811L48.08 45.5333C47.9466 45.3026 47.9281 45.023 48.03 44.7767C48.1662 44.443 48.274 44.0984 48.352 43.7465C48.4114 43.4828 48.5925 43.263 48.84 43.1542ZM37.987 42.2799C37.987 39.9209 39.8993 38.0086 42.2583 38.0086C44.6161 38.0114 46.5268 39.9221 46.5296 42.2799C46.5296 44.6389 44.6173 46.5512 42.2583 46.5512C39.8993 46.5512 37.987 44.6389 37.987 42.2799ZM39.6955 42.2798C39.6955 43.6952 40.8429 44.8426 42.2583 44.8426C43.6731 44.8411 44.8195 43.6946 44.8211 42.2798C44.8211 40.8644 43.6737 39.717 42.2583 39.717C40.8429 39.717 39.6955 40.8644 39.6955 42.2798Z" fill="#F2A900"/>
</svg>
