<svg width="43" height="52" viewBox="0 0 43 52" fill="none" xmlns="http://www.w3.org/2000/svg">
<path fill-rule="evenodd" clip-rule="evenodd" d="M7.08795 33.8386C8.39855 33.2823 9.78015 33 11.2 33H14.2V30.3609C13.9245 30.1243 13.6583 29.8749 13.4072 29.6131C12.0709 28.221 11.113 26.5357 10.6078 24.7H10.2C7.99435 24.7 6.19995 22.9056 6.19995 20.7C6.19995 19.6544 6.60375 18.7016 7.26295 17.9882C6.61335 17.4375 6.19995 16.6163 6.19995 15.7C6.19995 14.899 6.51205 14.1457 7.07885 13.5789C7.40965 13.2482 7.80415 13.0049 8.23435 12.859C8.58825 8.26122 11.8153 4.33232 16.2584 3.10082C16.5217 1.72562 17.6566 0.400024 19.2 0.400024H23.2C24.7434 0.400024 25.8783 1.72562 26.1416 3.10082C30.5851 4.33242 33.8124 8.26202 34.1657 12.8604C35.3474 13.2634 36.2 14.3837 36.2 15.7C36.2 16.501 35.8879 17.2543 35.3211 17.8211C35.2621 17.88 35.2006 17.9356 35.1378 17.989C35.7966 18.7024 36.2 19.6548 36.2 20.7C36.2 22.9056 34.4056 24.7 32.2 24.7H31.7894C31.1842 26.8991 29.9361 28.8721 28.2 30.3617V33H31.2C32.6197 33 34.0013 33.2823 35.312 33.8387C35.5305 33.863 35.727 33.9581 35.8798 34.1C37.6919 34.9941 39.2388 36.3786 40.3645 38.121C41.5653 39.9796 42.2 42.1163 42.2 44.3V50.6C42.2 51.1522 41.7523 51.6 41.2 51.6H1.19995C0.647651 51.6 0.199951 51.1522 0.199951 50.6V44.3C0.199951 42.1163 0.834651 39.9796 2.03545 38.1209C3.16115 36.3786 4.70795 34.9941 6.52025 34.0999C6.67295 33.958 6.86955 33.863 7.08795 33.8386ZM26.2 31.7375C24.6571 32.5668 22.9574 33 21.2 33C19.4427 33 17.7431 32.5669 16.2 31.7374V33.6L21.2 38.85L26.2 33.6V31.7375ZM20.2 40.7L14.7715 35H12.2V41.3C12.2 41.8523 11.7523 42.3 11.2 42.3C10.6477 42.3 10.2 41.8523 10.2 41.3V35.0592C9.51755 35.1396 8.84895 35.3027 8.19995 35.5474V49.6H10.2V47.3C10.2 46.7477 10.6477 46.3 11.2 46.3C11.7523 46.3 12.2 46.7477 12.2 47.3V49.6H20.2V40.7ZM6.19995 36.6122C3.75815 38.3429 2.19995 41.2583 2.19995 44.3V49.6H6.19995V36.6122ZM40.2 49.6V44.3C40.2 41.2582 38.6418 38.3428 36.2 36.6121V49.6H40.2ZM30.2 41.3V35H27.6285L22.2 40.7V49.6H30.2V47.3C30.2 46.7477 30.6477 46.3 31.2 46.3C31.7523 46.3 32.2 46.7477 32.2 47.3V49.6H34.2V35.5475C33.5508 35.3028 32.8824 35.1396 32.2 35.0592V41.3C32.2 41.8523 31.7523 42.3 31.2 42.3C30.6477 42.3 30.2 41.8523 30.2 41.3ZM32.1544 22.7H32.2C33.3028 22.7 34.2 21.8028 34.2 20.7C34.2 19.5972 33.3028 18.7 32.2 18.7V21.7C32.2 22.0334 32.1842 22.3673 32.1544 22.7ZM16.2 9.70002V5.21392C12.971 6.35662 10.64 9.27862 10.2559 12.7H32.1441C31.76 9.27862 29.429 6.35662 26.2 5.21392V9.70002C26.2 10.2523 25.7523 10.7 25.2 10.7C24.6477 10.7 24.2 10.2523 24.2 9.70002V3.90632V3.89852V3.70002C24.2 3.08042 23.6766 2.40002 23.2 2.40002H19.2C18.7234 2.40002 18.2 3.08042 18.2 3.70002V3.89852V3.90632V9.70002C18.2 10.2523 17.7523 10.7 17.2 10.7C16.6477 10.7 16.2 10.2523 16.2 9.70002ZM9.19995 14.7C8.93315 14.7 8.68215 14.8041 8.49305 14.9932C8.30405 15.1821 8.19995 15.4332 8.19995 15.7C8.19995 16.2514 8.64855 16.7 9.19995 16.7H10.2H11.2H31.2H32.2H33.2C33.4668 16.7 33.7179 16.5959 33.9069 16.4068C34.0959 16.2179 34.2 15.9668 34.2 15.7C34.2 15.1486 33.7514 14.7 33.2 14.7H9.19995ZM10.2 18.7C9.09715 18.7 8.19995 19.5972 8.19995 20.7C8.19995 21.8028 9.09715 22.7 10.2 22.7H10.2456C10.2158 22.3674 10.2 22.0334 10.2 21.7V18.7ZM12.3754 23.4859C12.3778 23.4966 12.3797 23.5074 12.3817 23.5183C12.7357 25.2862 13.5889 26.9143 14.8504 28.2285C15.1652 28.5568 15.5064 28.8637 15.8649 29.1411C17.431 30.3576 19.2753 31 21.2 31C23.1247 31 24.969 30.3576 26.5336 29.1422C28.3346 27.7456 29.5714 25.7488 30.0183 23.5181C30.0203 23.5072 30.0222 23.4963 30.0246 23.4855C30.1407 22.8981 30.2 22.2978 30.2 21.7V18.7H12.2V21.7C12.2 22.2983 12.2593 22.899 12.3754 23.4859ZM11.2 43.3C10.648 43.3 10.2 43.748 10.2 44.3C10.2 44.852 10.648 45.3 11.2 45.3C11.752 45.3 12.2 44.852 12.2 44.3C12.2 43.748 11.752 43.3 11.2 43.3ZM31.2 45.3C31.752 45.3 32.2 44.852 32.2 44.3C32.2 43.748 31.752 43.3 31.2 43.3C30.648 43.3 30.2 43.748 30.2 44.3C30.2 44.852 30.648 45.3 31.2 45.3Z" fill="#F2A900"/>
</svg>
