<svg width="52" height="52" viewBox="0 0 52 52" fill="none" xmlns="http://www.w3.org/2000/svg">
<path fill-rule="evenodd" clip-rule="evenodd" d="M26.9995 2.89632C26.9995 3.44862 26.5517 3.89632 25.9995 3.89632C25.4473 3.89632 24.9995 3.44862 24.9995 2.89632V1.40002C24.9995 0.847724 25.4473 0.400024 25.9995 0.400024C26.5517 0.400024 26.9995 0.847724 26.9995 1.40002V2.89632ZM36.6782 30.9667C36.6782 31.519 36.2304 31.9667 35.6782 31.9667H29.5671C29.0149 31.9667 28.5671 31.519 28.5671 30.9667C28.5671 30.4144 29.0149 29.9667 29.5671 29.9667H30.7004V27.9C30.7004 27.3477 31.1482 26.9 31.7004 26.9C32.2526 26.9 32.7004 27.3477 32.7004 27.9V29.9667H34.6781V27.3738C34.6781 25.4437 33.367 23.7826 31.4898 23.3341L28.7543 22.6806L26.9197 26.8526C26.7601 27.2157 26.4009 27.4501 26.0043 27.4501H26.0042C25.6077 27.4501 25.2485 27.2156 25.0889 26.8525L23.2524 22.6743L20.5082 23.3319C18.6328 23.7813 17.3228 25.4422 17.3228 27.3709V29.9667H19.3005V27.9C19.3005 27.3477 19.7483 26.9 20.3005 26.9C20.8527 26.9 21.3005 27.3477 21.3005 27.9V29.9665H22.3338C22.886 29.9665 23.3338 30.4142 23.3338 30.9665C23.3338 31.5188 22.886 31.9665 22.3338 31.9665H16.3228C15.7706 31.9665 15.3228 31.5188 15.3228 30.9665V27.3707C15.3228 27.2478 15.3277 27.1259 15.3348 27.0046H10.7396C10.1874 27.0046 9.73961 26.5569 9.73961 26.0046V24.137C9.73961 21.953 11.2232 20.0733 13.3474 19.5658L15.1265 19.1408V18.8218C13.9702 18.0118 13.212 16.6705 13.212 15.1547V12.9955V12.8418C13.212 10.3739 15.2197 8.36622 17.6876 8.36622C18.7996 8.36622 19.8173 8.77482 20.6008 9.44842C21.4698 7.31132 23.5678 5.80002 26.0132 5.80002C28.4555 5.80002 30.5513 7.30743 31.4223 9.44042C32.2046 8.77162 33.2186 8.36642 34.3261 8.36642C36.794 8.36642 38.8017 10.3741 38.8017 12.842V15.1549C38.8017 16.6707 38.0435 18.012 36.8872 18.822V19.141L38.6663 19.566C40.7906 20.0734 42.2742 21.9532 42.2742 24.1372V26.0048C42.2742 26.5571 41.8264 27.0048 41.2742 27.0048H36.666C36.6732 27.1271 36.6782 27.2499 36.6782 27.3738V30.9667ZM22.031 19.5645C22.307 19.6306 22.5748 19.7212 22.8317 19.8345V19.7574C22.1447 19.3093 21.5579 18.721 21.1113 18.033C20.8585 18.3332 20.567 18.5995 20.2446 18.8248V19.1364L22.031 19.5645ZM15.212 14.6784V15.1547C15.212 16.5198 16.3225 17.6302 17.6876 17.6302C19.0527 17.6302 20.1632 16.5196 20.1632 15.1546V13.9703C19.04 14.4357 17.832 14.6784 16.6077 14.6784H15.212ZM22.1722 13.8063V14.8625C22.1722 16.9805 23.8952 18.7036 26.0132 18.7035C28.0821 18.7035 29.7732 17.0591 29.8505 15.0088V13.3764L27.7883 12.1648C26.6327 13.2166 25.1249 13.8063 23.5391 13.8063H22.1722ZM29.1749 19.77V19.8377C29.4339 19.723 29.704 19.6313 29.9825 19.5645L31.769 19.1364V18.8248C31.4497 18.6016 31.1607 18.3382 30.9096 18.0414C30.4595 18.7324 29.8675 19.3222 29.1749 19.77ZM31.8505 15.0087V15.1547C31.8505 16.5198 32.961 17.6304 34.3261 17.6304C35.6912 17.6304 36.8017 16.5198 36.8017 15.1548V14.6785H35.406C34.183 14.6785 32.9763 14.4363 31.8542 13.9719V14.8625C31.8542 14.8948 31.8531 14.9268 31.852 14.9588V14.9589V14.9589L31.8513 14.9827L31.8505 15.0087ZM36.7963 12.6785C36.7119 11.3893 35.6363 10.3662 34.3261 10.3662C33.3092 10.3662 32.4335 10.9825 32.0531 11.8613C33.087 12.3971 34.2372 12.6785 35.406 12.6785H36.7963ZM26.0132 7.80002C23.8952 7.80002 22.1722 9.52312 22.1722 11.641V11.8064H23.5391C24.8201 11.8064 26.0266 11.2433 26.8493 10.2615C27.163 9.88702 27.7012 9.79412 28.1223 10.0415L29.8058 11.0306C29.5124 9.20182 27.9235 7.80002 26.0132 7.80002ZM19.9606 11.8612C19.5802 10.9826 18.7045 10.3662 17.6876 10.3662C16.3775 10.3662 15.3018 11.3893 15.2174 12.6784H16.6077C17.7765 12.6784 18.9266 12.397 19.9606 11.8612ZM15.7927 25.0047C16.5286 23.23 18.0748 21.8583 20.0422 21.3869L20.5478 21.2657L19.0561 20.9083C18.933 20.8848 18.8124 20.8378 18.7008 20.7655C18.4046 20.5739 18.2433 20.2525 18.2435 19.9244C18.2436 19.9095 18.2439 19.8946 18.2446 19.8797V19.5944C18.062 19.6172 17.8763 19.6303 17.6876 19.6303C17.4975 19.6303 17.3105 19.617 17.1265 19.5939V19.9301C17.1265 20.3929 16.8089 20.7952 16.3588 20.9027L13.812 21.5111C12.5917 21.8026 11.7395 22.8825 11.7395 24.1371V25.0047H15.7927ZM24.8317 21.297L26.0046 23.9653L27.1748 21.3038V20.5872C26.7992 20.6633 26.4108 20.7036 26.0131 20.7036C25.6085 20.7036 25.2134 20.6621 24.8317 20.5834V21.297ZM31.4525 21.2689L31.9546 21.3888C33.9232 21.8591 35.4705 23.23 36.2071 25.0047H40.2741V24.1371C40.2741 22.8825 39.4218 21.8027 38.2015 21.5111L35.6547 20.9027C35.2046 20.7952 34.887 20.3929 34.887 19.9301V19.5939C34.703 19.617 34.516 19.6303 34.3259 19.6303C34.1372 19.6303 33.9516 19.6172 33.7689 19.5944V19.9012L33.7692 19.9247C33.7692 20.2528 33.6084 20.5742 33.3127 20.7655C33.1996 20.8387 33.077 20.8863 32.9522 20.9095L31.4525 21.2689ZM21.2821 42.5858C20.4854 38.7886 18.2734 35.5052 15.0538 33.3403L11.5557 30.9881C10.153 30.0451 8.26762 30.2479 7.09522 31.4434V19.3938C7.09522 17.8122 6.01692 16.4684 4.47292 16.1257C3.47642 15.9043 2.44862 16.1441 1.65252 16.7828C0.856525 17.4215 0.400024 18.3732 0.400024 19.3938V34.899C0.400024 36.9303 1.02162 38.8796 2.19752 40.5361L3.98082 43.0482C4.17582 43.3229 4.48402 43.4694 4.79712 43.4694C4.99732 43.4694 5.19942 43.4094 5.37512 43.2847C5.82542 42.965 5.93142 42.3408 5.61162 41.8904L3.82832 39.3783C2.89392 38.062 2.40002 36.5131 2.40002 34.8989V19.3938C2.40002 18.983 2.58382 18.5999 2.90422 18.3427C3.22452 18.0856 3.63822 17.9891 4.03962 18.0782C4.66112 18.2161 5.09522 18.7571 5.09522 19.3938V31.6954C5.09522 33.4368 5.73502 35.0959 6.89732 36.3867C6.94712 36.4464 6.99832 36.5055 7.05242 36.5628C7.71652 37.2665 8.49732 38.0957 9.23272 38.8773L10.2622 39.973L10.2657 39.9764L10.2681 39.9787L10.2725 39.9829C10.9393 40.692 11.4735 41.2607 11.6996 41.5015L11.7028 41.5049L11.7072 41.5096L11.7082 41.5106L11.7105 41.5131L11.8163 41.6257C12.1942 42.0282 12.8272 42.0482 13.2298 41.6701C13.6324 41.292 13.6523 40.6592 13.2741 40.2566C13.2559 40.2372 12.0853 38.9907 10.7485 37.5698L8.45562 35.1295C8.44982 35.1233 8.44452 35.1168 8.43872 35.1106C7.90112 34.4676 7.90782 33.5353 8.47132 32.8991C8.96982 32.3365 9.81623 32.2285 10.4399 32.6478L13.9378 35C16.7226 36.8725 18.6357 39.7123 19.3247 42.9965L20.9632 50.8054C21.0621 51.2767 21.4778 51.6002 21.9409 51.6002C22.0089 51.6002 22.078 51.5932 22.1472 51.5787C22.6877 51.4653 23.0339 50.9351 22.9205 50.3946L21.2821 42.5858ZM9.87803 47.9004C9.55843 47.45 8.93413 47.3441 8.48373 47.6638C8.03343 47.9835 7.92743 48.6077 8.24723 49.0581L9.75273 51.1788C9.94773 51.4535 10.2559 51.6 10.569 51.6C10.7692 51.6 10.9713 51.54 11.147 51.4153C11.5973 51.0956 11.7033 50.4714 11.3835 50.021L9.87803 47.9004ZM6.40776 44.7436C6.85726 44.4228 7.48166 44.5272 7.80266 44.9768L7.80906 44.9858C8.12976 45.4353 8.02536 46.0598 7.57586 46.3806C7.39976 46.5063 7.19686 46.5667 6.99586 46.5667C6.68366 46.5667 6.37616 46.4209 6.18096 46.1474L6.17456 46.1384C5.85386 45.6889 5.95826 45.0644 6.40776 44.7436ZM50.3473 16.7829C49.5513 16.1442 48.523 15.9048 47.527 16.1258C45.983 16.4684 44.9046 17.8123 44.9046 19.3939V31.4435C43.7323 30.248 41.8467 30.0452 40.4441 30.9882L36.946 33.3403C33.7263 35.5051 31.5144 38.7886 30.7177 42.5858L29.0793 50.3947C28.9659 50.9352 29.3121 51.4653 29.8526 51.5787C29.9218 51.5932 29.991 51.6002 30.0589 51.6002C30.5221 51.6002 30.9377 51.2766 31.0366 50.8053L32.675 42.9964C33.3641 39.7123 35.2771 36.8724 38.0619 35L41.56 32.6479C42.1835 32.2285 43.0299 32.3365 43.5286 32.8991C44.0914 33.5345 44.0989 34.4653 43.5633 35.1083L43.5539 35.1189L43.5444 35.1295L38.7258 40.2566C38.3477 40.6592 38.3676 41.292 38.7701 41.6701C39.1727 42.0482 39.8055 42.0283 40.1836 41.6257L40.3955 41.4004C41.2435 40.4989 44.3736 37.1711 44.9475 36.5629C45.0016 36.5056 45.0528 36.4465 45.1026 36.3868C46.2648 35.096 46.9047 33.4369 46.9047 31.6955V19.3938C46.9047 18.7571 47.3388 18.2161 47.9604 18.0782C48.3617 17.9892 48.7753 18.0857 49.0958 18.3427C49.4162 18.5998 49.6 18.9829 49.6 19.3938V34.899C49.6 36.5132 49.1061 38.0621 48.1717 39.3784L40.6166 50.0211C40.2969 50.4714 40.4028 51.0957 40.8531 51.4154C41.0289 51.5401 41.2309 51.6001 41.4311 51.6001C41.7441 51.6001 42.0524 51.4535 42.2474 51.1789L49.8025 40.5362C50.9784 38.8797 51.6 36.9304 51.6 34.8991V19.3938C51.5998 18.3732 51.1433 17.4216 50.3473 16.7829ZM26 29.967C25.7359 29.967 25.479 30.073 25.293 30.259C25.106 30.446 25 30.703 25 30.967C25 31.23 25.106 31.487 25.293 31.674C25.479 31.86 25.736 31.967 26 31.967C26.263 31.967 26.52 31.86 26.7069 31.674C26.8929 31.487 27 31.23 27 30.967C27 30.703 26.893 30.446 26.7069 30.259C26.52 30.073 26.263 29.967 26 29.967ZM20.9023 5.07672C21.0975 5.27182 21.3533 5.36932 21.609 5.36932C21.8651 5.36932 22.1211 5.27152 22.3164 5.07613C22.7067 4.68543 22.7064 4.05223 22.3157 3.66193L21.2667 2.61393C20.876 2.22353 20.2429 2.22383 19.8525 2.61453C19.4621 3.00523 19.4625 3.63843 19.8532 4.02873L20.9023 5.07672ZM31.0819 5.09563C30.8867 5.29113 30.6306 5.38893 30.3745 5.38893C30.1187 5.38893 29.863 5.29143 29.6677 5.09633C29.277 4.70603 29.2767 4.07283 29.667 3.68213L30.7079 2.64023C31.0981 2.24943 31.7314 2.24923 32.1221 2.63953C32.5128 3.02983 32.5131 3.66303 32.1228 4.05373L31.0819 5.09563Z" fill="#F2A900"/>
</svg>
