<svg width="52" height="50" viewBox="0 0 52 50" fill="none" xmlns="http://www.w3.org/2000/svg">
<path fill-rule="evenodd" clip-rule="evenodd" d="M50.1815 25C50.1815 26.8557 49.9699 28.6999 49.5519 30.4934C51.3418 31.5936 52.104 33.8751 51.2496 35.861C50.5494 37.4888 48.9579 38.465 47.2889 38.465C46.9185 38.465 46.5446 38.417 46.1756 38.3174C44.0802 41.4804 41.2523 44.1312 37.9571 46.0134C34.3284 48.086 30.1937 49.1815 26 49.1815C14.4683 49.1815 4.48853 40.9729 2.27003 29.6632C2.16373 29.1212 2.51693 28.5957 3.05883 28.4894C3.60123 28.383 4.12633 28.7363 4.23263 29.2782C6.26753 39.6519 15.422 47.1813 26.0001 47.1813C33.4502 47.1813 40.2691 43.5258 44.4122 37.3578C43.0819 36.1565 42.5935 34.1947 43.3402 32.4588C44.0882 30.7198 45.8531 29.7247 47.6432 29.8685C48.0005 28.2775 48.1814 26.644 48.1814 25C48.1814 12.7692 38.2308 2.8186 26 2.8186C18.5946 2.8186 11.7325 6.4858 7.58833 12.6426C8.91833 13.8439 9.40663 15.8055 8.66003 17.5413C7.95973 19.1692 6.36813 20.1453 4.69923 20.1453C4.13233 20.1453 3.55683 20.0328 3.00403 19.795C0.823327 18.8571 -0.187673 16.3198 0.750327 14.1391C1.60593 12.1501 3.79203 11.1342 5.82433 11.6828C10.3292 4.8779 17.8632 0.818604 26 0.818604C39.3337 0.818604 50.1815 11.6663 50.1815 25ZM3.79433 17.9576C4.96173 18.4597 6.32033 17.9186 6.82273 16.751C7.32493 15.5834 6.78363 14.2249 5.61603 13.7227C5.32013 13.5954 5.01183 13.5351 4.70843 13.5351C3.81473 13.5351 2.96263 14.0576 2.58773 14.9292C2.08543 16.0968 2.62683 17.4554 3.79433 17.9576ZM46.3842 36.2773C47.5518 36.7796 48.9102 36.2382 49.4125 35.0707C49.9147 33.9031 49.3733 32.5446 48.2059 32.0423C47.0385 31.5399 45.6799 32.0814 45.1776 33.2489C44.6753 34.4165 45.2167 35.7751 46.3843 36.2773H46.3842ZM25.9998 4.789C23.8842 4.789 22.1203 6.3229 21.7614 8.3368C18.2206 9.2397 15.0154 11.2831 12.6832 14.1371C10.1841 17.1954 8.80784 21.0532 8.80784 24.9999C8.80784 28.9615 10.1934 32.8308 12.7095 35.8948C15.0405 38.7334 18.2338 40.7633 21.7613 41.663C22.1201 43.6771 23.8842 45.2109 25.9997 45.2109C28.1152 45.2109 29.8793 43.677 30.2381 41.663C33.7675 40.7629 36.9626 38.731 39.2938 35.8903C41.8075 32.8271 43.1918 28.9594 43.1918 25C43.1918 20.6651 41.5673 16.5221 38.6177 13.334C38.2427 12.9286 37.61 12.904 37.2045 13.2791C36.7991 13.6542 36.7745 14.2869 37.1496 14.6923C39.7562 17.5096 41.1917 21.1703 41.1917 25.0001C41.1917 31.8036 36.5875 37.8033 30.1109 39.627C29.5649 37.8757 27.9284 36.6008 25.9997 36.6008C24.071 36.6008 22.4345 37.8757 21.8885 39.627C15.4114 37.8033 10.8078 31.805 10.8078 25C10.8078 18.206 15.4154 12.1971 21.8886 10.3732C22.4346 12.1245 24.0711 13.3993 25.9998 13.3993C28.3737 13.3993 30.3049 11.468 30.3049 9.0941C30.3049 6.7202 28.3737 4.789 25.9998 4.789ZM25.9998 38.6008C27.2708 38.6008 28.3049 39.6348 28.3049 40.9059C28.3049 42.1769 27.2709 43.211 25.9998 43.211C24.7287 43.211 23.6947 42.177 23.6947 40.9059C23.6947 39.6348 24.7288 38.6008 25.9998 38.6008ZM25.9998 11.3992C24.7288 11.3992 23.6947 10.3652 23.6947 9.0941C23.6947 7.8232 24.7287 6.789 25.9998 6.789C27.2708 6.789 28.3049 7.823 28.3049 9.0941C28.3049 10.3652 27.2707 11.3992 25.9998 11.3992ZM34.3076 12.2625C34.2616 12.2165 34.2196 12.1655 34.1836 12.1105C34.1476 12.0565 34.1166 11.9985 34.0916 11.9375C34.0666 11.8775 34.0476 11.8145 34.0346 11.7505C34.0216 11.6865 34.0146 11.6205 34.0146 11.5555C34.0146 11.4904 34.0216 11.4244 34.0346 11.3594C34.0476 11.2964 34.0666 11.2334 34.0916 11.1724C34.1166 11.1124 34.1476 11.0544 34.1836 11.0004C34.2196 10.9454 34.2616 10.8944 34.3076 10.8484C34.3536 10.8024 34.4046 10.7604 34.4596 10.7244C34.5136 10.6884 34.5716 10.6574 34.6326 10.6324C34.6926 10.6074 34.7556 10.5874 34.8196 10.5754C34.9486 10.5494 35.0816 10.5494 35.2106 10.5754C35.2746 10.5874 35.3376 10.6074 35.3976 10.6324C35.4576 10.6574 35.5156 10.6884 35.5696 10.7244C35.6246 10.7604 35.6756 10.8024 35.7216 10.8484C35.7686 10.8944 35.8096 10.9454 35.8466 11.0004C35.8826 11.0544 35.9136 11.1124 35.9386 11.1724C35.9636 11.2334 35.9826 11.2964 35.9956 11.3594C36.0086 11.4245 36.0146 11.4905 36.0146 11.5555C36.0146 11.6205 36.0086 11.6865 35.9956 11.7505C35.9826 11.8145 35.9636 11.8775 35.9386 11.9375C35.9136 11.9985 35.8826 12.0565 35.8466 12.1105C35.8096 12.1655 35.7686 12.2165 35.7216 12.2625C35.6756 12.3085 35.6246 12.3505 35.5696 12.3865C35.5156 12.4225 35.4576 12.4535 35.3976 12.4785C35.3376 12.5035 35.2746 12.5225 35.2106 12.5355C35.1456 12.5485 35.0806 12.5555 35.0146 12.5555C34.9496 12.5555 34.8836 12.5485 34.8196 12.5355C34.7556 12.5225 34.6926 12.5035 34.6326 12.4785C34.5716 12.4535 34.5136 12.4225 34.4596 12.3865C34.4046 12.3505 34.3536 12.3085 34.3076 12.2625ZM2.63413 26.7031C2.57013 26.6901 2.50713 26.6711 2.44713 26.6461C2.38713 26.6211 2.32913 26.5901 2.27423 26.5541C2.22023 26.5181 2.16923 26.4761 2.12223 26.4301C2.07623 26.3841 2.03523 26.3331 1.99823 26.2781C1.96223 26.2241 1.93123 26.1651 1.90623 26.1051C1.88123 26.0451 1.86223 25.9821 1.84923 25.9181C1.83613 25.8541 1.83023 25.7881 1.83023 25.7231C1.83023 25.6581 1.83623 25.5921 1.84923 25.5271C1.86223 25.4631 1.88123 25.4011 1.90623 25.3401C1.93123 25.2801 1.96223 25.2221 1.99823 25.1681C2.03523 25.1131 2.07623 25.0621 2.12223 25.0161C2.16923 24.9691 2.22023 24.9281 2.27423 24.8911C2.32923 24.8551 2.38723 24.8241 2.44723 24.7991C2.50723 24.7741 2.57023 24.7551 2.63423 24.7421C2.76323 24.7161 2.89623 24.7161 3.02523 24.7421C3.08923 24.7551 3.15223 24.7741 3.21223 24.7991C3.27223 24.8241 3.33023 24.8551 3.38523 24.8911C3.43923 24.9281 3.49123 24.9691 3.53723 25.0161C3.58323 25.0621 3.62523 25.1131 3.66123 25.1681C3.69723 25.2221 3.72823 25.2801 3.75323 25.3401C3.77823 25.4001 3.79723 25.4631 3.81023 25.5271C3.82323 25.5921 3.83023 25.6581 3.83023 25.7231C3.83023 25.7881 3.82323 25.8541 3.81023 25.9181C3.79723 25.9821 3.77823 26.0451 3.75323 26.1051C3.72823 26.1651 3.69723 26.2241 3.66123 26.2781C3.62523 26.3331 3.58323 26.3841 3.53723 26.4301C3.49123 26.4761 3.43923 26.5181 3.38523 26.5541C3.33023 26.5901 3.27223 26.6211 3.21223 26.6461C3.15223 26.6711 3.08923 26.6901 3.02523 26.7031C2.96023 26.7161 2.89523 26.7231 2.83023 26.7231C2.76413 26.7231 2.69913 26.7161 2.63413 26.7031ZM26.0001 14.7972C20.3743 14.7972 15.7974 19.3742 15.7974 24.9999C15.7974 30.6257 20.3744 35.2026 26.0001 35.2026C31.6258 35.2026 36.2028 30.6257 36.2028 24.9999C36.2028 19.3742 31.6259 14.7972 26.0001 14.7972ZM26.0001 33.2026C21.4771 33.2026 17.7975 29.523 17.7975 25C17.7975 20.477 21.4771 16.7974 26.0001 16.7974C30.5231 16.7974 34.2027 20.477 34.2027 25C34.2027 29.523 30.5231 33.2026 26.0001 33.2026ZM19.8271 25C19.8271 21.5965 22.5961 18.8275 25.9997 18.8275C29.4033 18.8275 32.1722 21.5965 32.1723 25C32.1723 28.4036 29.4033 31.1726 25.9997 31.1726C22.5961 31.1726 19.8271 28.4036 19.8271 25ZM21.8272 24.9999C21.8272 27.3006 23.699 29.1724 25.9997 29.1724C28.3004 29.1724 30.1721 27.3007 30.1722 24.9999C30.1722 22.6993 28.3004 20.8275 25.9997 20.8275C23.699 20.8275 21.8272 22.6992 21.8272 24.9999Z" fill="#F2A900"/>
</svg>
